/* XPM */
static const char* xpm_configure[] = {
/* columns rows colors chars-per-pixel */
"48 48 101 2 ",
"   c #8F918F",
".  c #909290",
"X  c #919390",
"o  c #919391",
"O  c #929492",
"+  c #939593",
"@  c #969896",
"#  c #979997",
"$  c #989A97",
"%  c #989A98",
"&  c #999B98",
"*  c #9B9D9A",
"=  c #9C9E9B",
"-  c #9C9E9C",
";  c #9D9F9C",
":  c #9EA09D",
">  c #9EA09E",
",  c #9FA19F",
"<  c #A0A2A0",
"1  c #A1A3A0",
"2  c #A1A3A1",
"3  c #A2A4A2",
"4  c #A3A5A2",
"5  c #A3A5A3",
"6  c #A4A6A4",
"7  c #A5A7A4",
"8  c #A5A7A5",
"9  c #A6A8A5",
"0  c #A6A8A6",
"q  c #A7A9A7",
"w  c #A8AAA8",
"e  c #A9ABA8",
"r  c #A9ABA9",
"t  c #AAACAA",
"y  c #ABADAA",
"u  c #ABADAB",
"i  c #ABAEAB",
"p  c #ACAEAB",
"a  c #ADAFAC",
"s  c #ADAFAD",
"d  c #AEB0AD",
"f  c #ADB0AE",
"g  c #AEB0AE",
"h  c #AFB1AE",
"j  c #AFB1AF",
"k  c #B0B2AF",
"l  c #B0B2B0",
"z  c #B0B3B0",
"x  c #B1B3B1",
"c  c #B3B3B0",
"v  c #B3B4B1",
"b  c #B3B5B2",
"n  c #B3B5B3",
"m  c #B4B4B1",
"M  c #B4B5B2",
"N  c #B4B6B3",
"B  c #B5B6B3",
"V  c #B4B6B4",
"C  c #B5B7B4",
"Z  c #B5B7B5",
"A  c #B6B7B4",
"S  c #B6B8B5",
"D  c #B7B8B5",
"F  c #B7B9B5",
"G  c #B6B8B6",
"H  c #B7B9B6",
"J  c #B7BAB7",
"K  c #B8B9B6",
"L  c #B8BAB6",
"P  c #B8BAB7",
"I  c #B8BAB8",
"U  c #B9BBB8",
"Y  c #B9BBB9",
"T  c #BABBB8",
"R  c #BABCB9",
"E  c #BBBCB9",
"W  c #BBBDBA",
"Q  c #BCBDBA",
"!  c #BDBEBA",
"~  c #BCBEBB",
"^  c #BDBEBB",
"/  c #BCBEBC",
"(  c #BDBFBC",
")  c #BEBFBC",
"_  c #BEC0BC",
"`  c #BEC0BD",
"'  c #BFC0BD",
"]  c #BFC1BE",
"[  c #C0C1BE",
"{  c #C0C2BE",
"}  c #C0C2BF",
"|  c #C1C2BF",
" . c #C0C3BF",
".. c #C1C3C0",
"X. c #C1C3C1",
"o. c #C1C4C1",
"O. c #C2C4C0",
"+. c #C2C4C1",
"@. c #C2C5C1",
"#. c #C3C5C2",
"$. c None",
/* pixels */
"$.$.$.$.$.$.$.$.$.$.$.$.$.$.$.$.$.$.$.$.$.$.$.$.$.$.$.$.$.$.$.$.$.$.$.$.$.$.$.$.$.$.$.$.$.$.$.$.",
"$.$.$.$.$.$.$.$.$.$.$.$.$.$.$.$.$.$.$.$.$.$.$.$.$.$.$.$.$.$.$.$.$.$.$.$.$.$.$.$.$.$.$.$.$.$.$.$.",
"$.$.$.$.$.$.$.$.$.$.$.$.$.$.$.$.$.$.$.$.$.$.$.$.$.$.$.$.$.$.$.$.$.$.$.$.$.$.$.$.$.$.$.$.$.$.$.$.",
"$.$.$.$.$.$.$.$.$.$.$.$.$.$.$.$.$.$.$.$.$.$.$.$.$.$.$.$.$.$.$.$.$.$.$.$.$.$.$.$.$.$.$.$.$.$.$.$.",
"$.$.$.$.$.$.$.$.$.$.$.$.$.$.$.$.$.$.$.$.$.$.$.$.$.$.$.$.$.$.$.$.$.$.$.$.$.$.$.$.$.$.$.$.$.$.$.$.",
"$.$.$.$.$.$.$.$.$.$.$.$.$.$.$.$.$.$.$.$.$.$.$.$.$.$.$.$.$.$.$.$.$.$.$.$.$.$.$.$.$.$.$.$.$.$.$.$.",
"$.$.$.$.$.$.$.$.$.$.$.$.$.$.$.$.$.$.$.$.$.$.$.$.$.$.$.$.$.$.$.$.$.$.$.$.$.$.$.$.$.$.$.$.$.$.$.$.",
"$.$.$.$.$.$.$.$.$.$.$.$.$.$.$.$.$.$.$.$.$.e k k g k 9 $.$.$.$.$.$.$.$.$.$.$.$.$.$.$.$.$.$.$.$.$.",
"$.$.$.$.$.$.$.$.$.$.$.$.$.$.$.$.$.$.$.$.4 | Z Z Z K #.* $.$.$.$.$.$.$.$.$.$.$.$.$.$.$.$.$.$.$.$.",
"$.$.$.$.$.$.$.$.$.$.$.$.$.$.$.$.$.$.$.$.v I M M M c ] 9 $.$.$.$.$.$.$.$.$.$.$.$.$.$.$.$.$.$.$.$.",
"$.$.$.$.$.$.$.$.$.$.$.$.$.$ g ; $.$.$.$.K I v M M v Q c $.$.$.$.4 t $.$.$.$.$.$.$.$.$.$.$.$.$.$.",
"$.$.$.$.$.$.$.$.$.$.$.$.+ Z ] ] 4 $.$.$. .M v M M v K I $.$.. e  . .g + $.$.$.$.$.$.$.$.$.$.$.$.",
"$.$.$.$.$.$.$.$.$.$.$.+ Z ] v H #.w # w ..c M M M v M ..6 @ g #.M M #.t + $.$.$.$.$.$.$.$.$.$.$.",
"$.$.$.$.$.$.$.$.$.$.$ H ] M v v H ] ( ( H v M M M v M K ] ( ] M v v M #.g $.$.$.$.$.$.$.$.$.$.$.",
"$.$.$.$.$.$.$.$.$.$.g ( v v M v v M M M v M M M M M v v M M M c M M v v ] w $.$.$.$.$.$.$.$.$.$.",
"$.$.$.$.$.$.$.$.$.$.4 ..M M M M M M M M M M M M M M M M M M M M M v v H ] 1 $.$.$.$.$.$.$.$.$.$.",
"$.$.$.$.$.$.$.$.$.$.$.t #.v v M M M M M M M M M M M M M M M M M M M M #.6 $.$.$.$.$.$.$.$.$.$.$.",
"$.$.$.$.$.$.$.$.$.$.$.+ c ] M M M M M M M M M M M M M M M M M M M M  .e $.$.$.$.$.$.$.$.$.$.$.$.",
"$.$.$.$.$.$.$.$.$.$.$.$.% ] M M M M M M M M M M M M M M M M M M M M W @ $.$.$.$.$.$.$.$.$.$.$.$.",
"$.$.$.$.$.$.$.$.$.$.$.$.t W M M M M M M M v v c v v v M M M M M M M ( 4 $.$.$.$.$.$.$.$.$.$.$.$.",
"$.$.$.$.$.$.$.$.> t Z W #.H c M M M M M v v Q  . .W v M M M M M M v K #.W v t * $.$.$.$.$.$.$.$.",
"$.$.$.$.$.$.$.t #._ W H v v v v M M M v M ..Z 2 4 H ] M v M M M M M v M H W ] #.6 $.$.$.$.$.$.$.",
"$.$.$.$.$.$.$.j H v c v v M M M M M M v ( k $.$.$.o W I v M M M M M M v v v v K a $.$.$.$.$.$.$.",
"$.$.$.$.$.$.$.c M M M v M M M M M M M v #.= $.$.$.$.9 ] v M M M M M M M M M v H t $.$.$.$.$.$.$.",
"$.$.$.$.$.$.$.g Z M M M M M M M M M M v ..; $.$.$.$.4 ] v M M M M M M M M M v H t $.$.$.$.$.$.$.",
"$.$.$.$.$.$.$.c H v v v v M M M M M M v ] k $.$.$.  Z W v M M M M M M v v v v H a $.$.$.$.$.$.$.",
"$.$.$.$.$.$.$.e ..Q W M v v M M M M M v v #.v > > H  .c v M M M M M v v H K Q  .6 $.$.$.$.$.$.$.",
"$.$.$.$.$.$.$.$.4 g Z ] #.M v M M M M v v v ( #...Q v M M M M M M v H #.Q H g 4 $.$.$.$.$.$.$.$.",
"$.$.$.$.$.$.$.$.$.$.$.$.a ( v M M M M M M v v v v v v M M M M M M M ] 6 $.$.$.$.$.$.$.$.$.$.$.$.",
"$.$.$.$.$.$.$.$.$.$.$.$.% ] M M M M M M M M M M M M M M M M M M v Z Q % $.$.$.$.$.$.$.$.$.$.$.$.",
"$.$.$.$.$.$.$.$.$.$.$.o g ] M M M M M M M M M M M M M M M M M M M M } e $.$.$.$.$.$.$.$.$.$.$.$.",
"$.$.$.$.$.$.$.$.$.$.$.e #.v v M M M M M M M M M M M M M M M M M v c Z #.6 $.$.$.$.$.$.$.$.$.$.$.",
"$.$.$.$.$.$.$.$.$.$.2 ..M v M M M M M M M M M M M M M M M M M M M v v H ] > $.$.$.$.$.$.$.$.$.$.",
"$.$.$.$.$.$.$.$.$.$.k ( M c M M c M M M c M M M M M v v M M M v M M v v ] u $.$.$.$.$.$.$.$.$.$.",
"$.$.$.$.$.$.$.$.$.$.% H ] M v v Z  .Q ] M c M M M M M H ] ] Q M m m M  .v % $.$.$.$.$.$.$.$.$.$.",
"$.$.$.$.$.$.$.$.$.$.$.+ Z ] M Z #.t % y #.M M M M M M ..q % v #.M M  .k + $.$.$.$.$.$.$.$.$.$.$.",
"$.$.$.$.$.$.$.$.$.$.$.$.+ K (  .6 $.$.$.] Z v M M c K I $.$.o t ..( M o $.$.$.$.$.$.$.$.$.$.$.$.",
"$.$.$.$.$.$.$.$.$.$.$.$.$.% y 2 $.$.$.$.I K v M M v W c $.$.$.$.6 a $ $.$.$.$.$.$.$.$.$.$.$.$.$.",
"$.$.$.$.$.$.$.$.$.$.$.$.$.$.$.$.$.$.$.$.v W M c v k  .e $.$.$.$.$.$.$.$.$.$.$.$.$.$.$.$.$.$.$.$.",
"$.$.$.$.$.$.$.$.$.$.$.$.$.$.$.$.$.$.$.$.4  .Z H H H ..= $.$.$.$.$.$.$.$.$.$.$.$.$.$.$.$.$.$.$.$.",
"$.$.$.$.$.$.$.$.$.$.$.$.$.$.$.$.$.$.$.$.$.t g a a g 9 $.$.$.$.$.$.$.$.$.$.$.$.$.$.$.$.$.$.$.$.$.",
"$.$.$.$.$.$.$.$.$.$.$.$.$.$.$.$.$.$.$.$.$.$.$.$.$.$.$.$.$.$.$.$.$.$.$.$.$.$.$.$.$.$.$.$.$.$.$.$.",
"$.$.$.$.$.$.$.$.$.$.$.$.$.$.$.$.$.$.$.$.$.$.$.$.$.$.$.$.$.$.$.$.$.$.$.$.$.$.$.$.$.$.$.$.$.$.$.$.",
"$.$.$.$.$.$.$.$.$.$.$.$.$.$.$.$.$.$.$.$.$.$.$.$.$.$.$.$.$.$.$.$.$.$.$.$.$.$.$.$.$.$.$.$.$.$.$.$.",
"$.$.$.$.$.$.$.$.$.$.$.$.$.$.$.$.$.$.$.$.$.$.$.$.$.$.$.$.$.$.$.$.$.$.$.$.$.$.$.$.$.$.$.$.$.$.$.$.",
"$.$.$.$.$.$.$.$.$.$.$.$.$.$.$.$.$.$.$.$.$.$.$.$.$.$.$.$.$.$.$.$.$.$.$.$.$.$.$.$.$.$.$.$.$.$.$.$.",
"$.$.$.$.$.$.$.$.$.$.$.$.$.$.$.$.$.$.$.$.$.$.$.$.$.$.$.$.$.$.$.$.$.$.$.$.$.$.$.$.$.$.$.$.$.$.$.$.",
"$.$.$.$.$.$.$.$.$.$.$.$.$.$.$.$.$.$.$.$.$.$.$.$.$.$.$.$.$.$.$.$.$.$.$.$.$.$.$.$.$.$.$.$.$.$.$.$."
};
