/* XPM */
static const char *xpm_folder[] = {
/* columns rows colors chars-per-pixel */
"48 48 47 1 ",
"  c #AFAFAF",
". c gray69",
"X c #B1B1B1",
"o c #B2B2B2",
"O c gray70",
"+ c #B4B4B4",
"@ c gray71",
"# c #B7B7B7",
"$ c gray72",
"% c #B9B9B9",
"& c gray73",
"* c #BBBBBB",
"= c #BCBCBC",
"- c gray74",
"; c #C1C1C1",
": c gray76",
"> c gray79",
", c #CACACA",
"< c #CBCBCB",
"1 c #CECECE",
"2 c gray83",
"3 c #D5D5D5",
"4 c gray85",
"5 c #DADADA",
"6 c #DDDDDD",
"7 c gray87",
"8 c #DFDFDF",
"9 c #E4E4E4",
"0 c gray90",
"q c #E7E7E7",
"w c gray91",
"e c #E9E9E9",
"r c #EAEAEA",
"t c #ECECEC",
"y c gray93",
"u c gray94",
"i c #F1F1F1",
"p c #F6F6F6",
"a c gray97",
"s c #F9F9F9",
"d c gray98",
"f c #FBFBFB",
"g c gray99",
"h c #FDFDFD",
"j c #FEFEFE",
"k c white",
"l c None",
/* pixels */
"llllllllllllllllllllllllllllllllllllllllllllllll",
"llllllllllllllllllllllllllllllllllllllllllllllll",
"llllllllllllllllllllllllllllllllllllllllllllllll",
"llllllllllllllllllllllllllllllllllllllllllllllll",
"llllllllllllllllllllllllllllllllllllllllllllllll",
"llllllllllllllllllllllllllllllllllllllllllllllll",
"llllllkkkkkkkkkkkkkkklllllllllllllllllllllllllll",
"lllllkkkkkkkkkkkkkkkkkllllllllllllllllllllllllll",
"llllkkky00000000000kkkllllllllllllllllllllllllll",
"llllkk7oooooooooooo2kkllllllllllllllllllllllllll",
"llllkk5o+++++++++++<kkkkkkkkkkkkkkkkklllllllllll",
"llllkk5o++++++++++o<kkkkkkkkkkkkkkkkkkklllllllll",
"llllkk5o++++++++++o<kkdddkdkkkdddkdkkkkkllllllll",
"llllkk5o+++++++++++++%%%%%+%+%%%%%%+1dkkllllllll",
"llllkk5o++++++++++++++++++++++o+++++%ukkllllllll",
"llllkk5o++++++++++++++++++++++++++++%ukkllllllll",
"llllkk5o++oo o ooo o o o ooo o o o  +ukkllllllll",
"llllkk5o+++2ee0e0ee0ee0ee00e0ee0ee0eedkkkkklllll",
"llllkk5o++:pkkkkkkkkkkkkkkkkkkkkkkkkkkkkkkkkllll",
"llllkk5o++:dk00000e00e000e0e00e00e000e0eekkkllll",
"llllkk5o++:kk+ooooo o o  o ooo oo  o o oo7kkllll",
"llllkk5o++:dk+o++o+++o++++o++++o++++++o+o5kkllll",
"llllkk5o++:dk%++++++++++++++++++++++++++o5kkllll",
"llllkk5o+o:dk%++++++++++++++++++++++++++o5kkllll",
"llllkk5o++:dk%++++++++++++++++++++++++++o5kkllll",
"llllkk5o++:dk+++++++++++++++++++++++++++o5kkllll",
"llllkk5o++:dk+++++++++++++++++++++++++++o5kkllll",
"llllkk5o++:dk%++++++++++++++++++++++++++o5kkllll",
"llllkk5o++:dk+++++++++++++++++++++++++++o5kkllll",
"llllkk5o++:dk%++++++++++++++++++++++++++o5kkllll",
"llllkk5o++:dk%++++++++++++++++++++++++++o5kkllll",
"llllkk5o++:dk+++++++++++++++++++++++++++o5kkllll",
"llllkk5oo+:dk%++++++++++++++++++++++++++o5kkllll",
"llllkk5o++:dk+++++++++++++++++++++++++++o5kkllll",
"llllkk5o++:dk%++++++++++++++++++++++++++o5kkllll",
"llllkk5o++:dk%++++++++++++++++++++++++++o5kkllll",
"llllkk5o++-ye%o+++++++++++++++++++++++++o5kkllll",
"llllkk5o+++-%+++++++++++++++++++++++++++o5kkllll",
"llllkk5o++++++++++++++++++++++++++++++++o5kkllll",
"llllkk5o++++++++++++++++++++++++++++++++o5kkllll",
"llllkk7oooooooooooooooooooooooooooooooooo7kkllll",
"llllkkp7555555555555555555555555555555557pkkllll",
"llllkkkkkkkkkkkkkkkkkkkkkkkkkkkkkkkkkkkkkkkkllll",
"lllllkkkkkkkkkkkkkkkkkkkkkkkkkkkkkkkkkkkkkklllll",
"llllllllllllllllllllllllllllllllllllllllllllllll",
"llllllllllllllllllllllllllllllllllllllllllllllll",
"llllllllllllllllllllllllllllllllllllllllllllllll",
"llllllllllllllllllllllllllllllllllllllllllllllll"
};
