/* XPM */
static char *popup_more[] = {
/* columns rows colors chars-per-pixel */
"48 48 2 1 ",
"  c gray",
". c None",
/* pixels */
"................................................",
"................................................",
"................................................",
"................................................",
"................................................",
"................................................",
"................................................",
"................................................",
"................................................",
".........                              .........",
".........                              .........",
".........                              .........",
".........                              .........",
".........                              .........",
".........                              .........",
"................................................",
"................................................",
"................................................",
"................................................",
"................................................",
"................................................",
".........                              .........",
".........                              .........",
".........                              .........",
".........                              .........",
".........                              .........",
".........                              .........",
"................................................",
"................................................",
"................................................",
"................................................",
"................................................",
"................................................",
".........                              .........",
".........                              .........",
".........                              .........",
".........                              .........",
".........                              .........",
".........                              .........",
"................................................",
"................................................",
"................................................",
"................................................",
"................................................",
"................................................",
"................................................",
"................................................",
"................................................"
};
