/* XPM */
static char *popup_close[] = {
/* columns rows colors chars-per-pixel */
"48 48 4 1 ",
"  c gray74",
". c gray",
"X c gray75",
"o c None",
/* pixels */
"oooooooooooooooooooooooooooooooooooooooooooooooo",
"oooooooooooooooooooooooooooooooooooooooooooooooo",
"oooooooooooooooooooooooooooooooooooooooooooooooo",
"oooooooooooooooooooooooooooooooooooooooooooooooo",
"oooooooooooooooooooooooooooooooooooooooooooooooo",
"oooooooooooooooooooooooooooooooooooooooooooooooo",
"oooooooooooooooooooooooooooooooooooooooooooooooo",
"oooooooooooooooooooooooooooooooooooooooooooooooo",
"oooooooooooooooooooooooooooooooooooooooooooooooo",
"ooooooooo.....oooooooooooooooooooo.....ooooooooo",
"ooooooooo......Xoooooooooooooooo.......ooooooooo",
"ooooooooo.......Xoooooooooooooo........ooooooooo",
"ooooooooo.........oooooooooooo.........ooooooooo",
"ooooooooo........XXoooooooooo..........ooooooooo",
"ooooooooo...........oooooooo.........X.ooooooooo",
"oooooooooo...........oooooo...........oooooooooo",
"ooooooooooo...........oooo...........ooooooooooo",
"oooooooooooo...........oo...........oooooooooooo",
"ooooooooooooo......................ooooooooooooo",
"oooooooooooooo....................oooooooooooooo",
"ooooooooooooooo..................ooooooooooooooo",
"oooooooooooooooo................oooooooooooooooo",
"ooooooooooooooooo..............ooooooooooooooooo",
"oooooooooooooooooo............oooooooooooooooooo",
"oooooooooooooooooo............oooooooooooooooooo",
"ooooooooooooooooo..............ooooooooooooooooo",
"oooooooooooooooo................oooooooooooooooo",
"ooooooooooooooo..................ooooooooooooooo",
"oooooooooooooo....................oooooooooooooo",
"ooooooooooooo......................ooooooooooooo",
"oooooooooooo.X.........oo...........oooooooooooo",
"ooooooooooo...........oooo...........ooooooooooo",
"oooooooooo...........oooooo...........oooooooooo",
"oooooooooXX.........oooooooo...........ooooooooo",
"ooooooooo..........oooooooooo..........ooooooooo",
"ooooooooo.........oooooooooooo.........ooooooooo",
"ooooooooo........oooooooooooooo........ooooooooo",
"ooooooooo.......oooooooooooooooo.X.....ooooooooo",
"ooooooooo......ooooooooooooooooooX.....ooooooooo",
"oooooooooooooooooooooooooooooooooooooooooooooooo",
"oooooooooooooooooooooooooooooooooooooooooooooooo",
"oooooooooooooooooooooooooooooooooooooooooooooooo",
"oooooooooooooooooooooooooooooooooooooooooooooooo",
"oooooooooooooooooooooooooooooooooooooooooooooooo",
"oooooooooooooooooooooooooooooooooooooooooooooooo",
"oooooooooooooooooooooooooooooooooooooooooooooooo",
"oooooooooooooooooooooooooooooooooooooooooooooooo",
"oooooooooooooooooooooooooooooooooooooooooooooooo"
};
