/* XPM */
static char *questionmark[] = {
/* columns rows colors chars-per-pixel */
"48 48 51 1 ",
"  c #50B303",
". c #64B303",
"X c #10B342",
"o c #BDB374",
"O c #BCB379",
"+ c #C0B45F",
"@ c #CBB46C",
"# c #62B3BE",
"$ c #56B4C0",
"% c #5EB4C1",
"& c #42B3D7",
"* c #BFB486",
"= c #B8B494",
"- c #BAB495",
"; c #94B4B6",
": c #9BB4B7",
"> c #9CB4B5",
", c #B5B3A1",
"< c #B4B3A2",
"1 c #B4B3A5",
"2 c #BCB3A6",
"3 c #B4B3A8",
"4 c #B5B3A8",
"5 c #B4B3A9",
"6 c #B6B3AB",
"7 c #B2B3AF",
"8 c #B4B4AD",
"9 c #A5B4B4",
"0 c #AAB3B2",
"q c #AFB4B1",
"w c #ABB3B7",
"e c #AEB3B4",
"r c #AFB3B4",
"t c #ACB3B6",
"y c #ABB4B7",
"u c #AEB4B5",
"i c #A4B4BC",
"p c #B1B3B2",
"a c #B3B4B0",
"s c #B3B4B1",
"d c #DCB386",
"f c #C5B390",
"g c #CAB497",
"h c #E1B38B",
"j c #85B3C4",
"k c #8FB3CC",
"l c #90B3C9",
"z c #86B3D5",
"x c #85B3D8",
"c c #80B3E7",
"v c None",
/* pixels */
"vvvvvvvvvvvvvvvvvvvvvvvvvvvvvvvvvvvvvvvvvvvvvvvv",
"vvvvvvvvvvvvvvvvvvvvvvvvvvvvvvvvvvvvvvvvvvvvvvvv",
"vvvvvvvvvvvvvvvvvvvvvvvvvvvvvvvvvvvvvvvvvvvvvvvv",
"vvvvvvvvvvvvvvvvvvvvvvvvvvvvvvvvvvvvvvvvvvvvvvvv",
"vvvvvvvvvvvvvvvvvvvvvvvvvvvvvvvvvvvvvvvvvvvvvvvv",
"vvvvvvvvvvvvvvvvvvvvvvvvvvvvvvvvvvvvvvvvvvvvvvvv",
"vvvvvvvvvvvvvvvvvvvvvvvvvvvvvvvvvvvvvvvvvvvvvvvv",
"vvvvvvvvvvvvvvvvvvvvvvvvvvvvvvvvvvvvvvvvvvvvvvvv",
"vvvvvvvvvvvvvvvvvvvvviwrps862vvvvvvvvvvvvvvvvvvv",
"vvvvvvvvvvvvvvvvvvx9sssssssssssgvvvvvvvvvvvvvvvv",
"vvvvvvvvvvvvvvvvvlssssssssssssss6vvvvvvvvvvvvvvv",
"vvvvvvvvvvvvvvvvjssssssssssssssss7vvvvvvvvvvvvvv",
"vvvvvvvvvvvvvvv ssssssssssssssssss,vvvvvvvvvvvvv",
"vvvvvvvvvvvvvvv0sssssssssssssssssssXvvvvvvvvvvvv",
"vvvvvvvvvvvvvvvsssssssshvvvzsssssssOvvvvvvvvvvvv",
"vvvvvvvvvvvvvv%sssssss@vvvvvsssssss1vvvvvvvvvvvv",
"vvvvvvvvvvvvvv>sssssssvvvvvvsssssss6vvvvvvvvvvvv",
"vvvvvvvvvvvvvvvvvvyrurvvvvv.sssssssovvvvvvvvvvvv",
"vvvvvvvvvvvvvvvvvvvvvvvvvvcssssssssvvvvvvvvvvvvv",
"vvvvvvvvvvvvvvvvvvvvvvvvvkssssssss*vvvvvvvvvvvvv",
"vvvvvvvvvvvvvvvvvvvvvvvv:ssssssss-vvvvvvvvvvvvvv",
"vvvvvvvvvvvvvvvvvvvvvvv0ssssssssfvvvvvvvvvvvvvvv",
"vvvvvvvvvvvvvvvvvvvvvvqssssssssdvvvvvvvvvvvvvvvv",
"vvvvvvvvvvvvvvvvvvvvv;sssssss6vvvvvvvvvvvvvvvvvv",
"vvvvvvvvvvvvvvvvvvvvvsssssss<vvvvvvvvvvvvvvvvvvv",
"vvvvvvvvvvvvvvvvvvvv&sssssssvvvvvvvvvvvvvvvvvvvv",
"vvvvvvvvvvvvvvvvvvvv$ssssss=vvvvvvvvvvvvvvvvvvvv",
"vvvvvvvvvvvvvvvvvvvv#ssssss+vvvvvvvvvvvvvvvvvvvv",
"vvvvvvvvvvvvvvvvvvvvvvvvvvvvvvvvvvvvvvvvvvvvvvvv",
"vvvvvvvvvvvvvvvvvvvvvvvvvvvvvvvvvvvvvvvvvvvvvvvv",
"vvvvvvvvvvvvvvvvvvvvssssssssvvvvvvvvvvvvvvvvvvvv",
"vvvvvvvvvvvvvvvvvvvvssssssssvvvvvvvvvvvvvvvvvvvv",
"vvvvvvvvvvvvvvvvvvvvssssssssvvvvvvvvvvvvvvvvvvvv",
"vvvvvvvvvvvvvvvvvvvvssssssssvvvvvvvvvvvvvvvvvvvv",
"vvvvvvvvvvvvvvvvvvvvssssssssvvvvvvvvvvvvvvvvvvvv",
"vvvvvvvvvvvvvvvvvvvvssssssssvvvvvvvvvvvvvvvvvvvv",
"vvvvvvvvvvvvvvvvvvvvssssssssvvvvvvvvvvvvvvvvvvvv",
"vvvvvvvvvvvvvvvvvvvvssssssssvvvvvvvvvvvvvvvvvvvv",
"vvvvvvvvvvvvvvvvvvvvvvvvvvvvvvvvvvvvvvvvvvvvvvvv",
"vvvvvvvvvvvvvvvvvvvvvvvvvvvvvvvvvvvvvvvvvvvvvvvv",
"vvvvvvvvvvvvvvvvvvvvvvvvvvvvvvvvvvvvvvvvvvvvvvvv",
"vvvvvvvvvvvvvvvvvvvvvvvvvvvvvvvvvvvvvvvvvvvvvvvv",
"vvvvvvvvvvvvvvvvvvvvvvvvvvvvvvvvvvvvvvvvvvvvvvvv",
"vvvvvvvvvvvvvvvvvvvvvvvvvvvvvvvvvvvvvvvvvvvvvvvv",
"vvvvvvvvvvvvvvvvvvvvvvvvvvvvvvvvvvvvvvvvvvvvvvvv",
"vvvvvvvvvvvvvvvvvvvvvvvvvvvvvvvvvvvvvvvvvvvvvvvv",
"vvvvvvvvvvvvvvvvvvvvvvvvvvvvvvvvvvvvvvvvvvvvvvvv",
"vvvvvvvvvvvvvvvvvvvvvvvvvvvvvvvvvvvvvvvvvvvvvvvv"
};
