/* XPM */
static const char* xpm_screenshot[] = {
/* columns rows colors chars-per-pixel */
"48 48 2 1 ",
"  c #B4B4B4",
". c None",
/* pixels */
"................................................",
"................................................",
"................................................",
"................................................",
"................................................",
"................................................",
"................................................",
"................................................",
"................................................",
".................              .................",
"................                ................",
"...............                  ...............",
"...............                  ...............",
".........                              .........",
".......                                  .......",
"......                                    ......",
".....    ..           ....                 .....",
".....   ....       ..........              .....",
"....     ...     ..............             ....",
"....      .     ................            ....",
"....           ......      ......           ....",
"....           ....          ....           ....",
"....          ....            ....          ....",
"....          ....            ....          ....",
"....         ....              ....         ....",
"....         ....              ....         ....",
"....         ....              ....         ....",
"....         ....              ....         ....",
"....         ....              ....         ....",
"....         ....              ....         ....",
"....          ...              ...          ....",
"....          ....            ....          ....",
"....           ....          ....           ....",
"....           .....        .....           ....",
"....            .......  .......            ....",
"....             ..............             ....",
".....              ..........              .....",
".....                ......                .....",
"......                                    ......",
".......                                  .......",
".........                              .........",
"................................................",
"................................................",
"................................................",
"................................................",
"................................................",
"................................................",
"................................................"
};
