/* XPM */
static const char * xpm_view[] = {
"48 48 2 1",
" 	c None",
".	c #B4B4B4",
"                                                ",
"                                                ",
"                                                ",
"                                                ",
"                                                ",
"                                                ",
"                                                ",
"                                                ",
"                                                ",
"                                                ",
"                                                ",
"                  ............                  ",
"               ..................               ",
"             ......................             ",
"           ..........      ..........           ",
"         ..........          ..........         ",
"        .........              .........        ",
"       .........                .........       ",
"      .........      ......      .........      ",
"     ..........    ..........    ..........     ",
"    ..........    ............    ..........    ",
"   ...........    ............    ...........   ",
"  ............    ............    ............  ",
"  ............   ..............   ............  ",
"  ............   ..............   ............  ",
"  ............    ............    ............  ",
"   ...........    ............    ...........   ",
"    ..........     ..........     ..........    ",
"     ..........    ..........    ..........     ",
"      .........      ......      .........      ",
"       .........                .........       ",
"        .........              .........        ",
"         ..........          ..........         ",
"           ..........      ..........           ",
"             ......................             ",
"               ..................               ",
"                   ...........                  ",
"                                                ",
"                                                ",
"                                                ",
"                                                ",
"                                                ",
"                                                ",
"                                                ",
"                                                ",
"                                                ",
"                                                ",
"                                                "};
